<svg xmlns="http://www.w3.org/2000/svg" height="100%" viewBox="0 0 512 512" width="100%" fill-rule="nonzero" stroke-linejoin="round" stroke-miterlimit="2"><path d="M512 256C512 114.615 397.385 0 256 0S0 114.615 0 256c0 127.777 93.616 233.685 216 252.9V330h-65v-74h65v-56.4c0-64.16 38.22-99.6 96.695-99.6 28.01 0 57.305 5 57.305 5v63h-32.28c-31.8 0-41.72 19.733-41.72 39.978V256h71l-11.35 74H296v178.9C418.385 489.685 512 383.777 512 256z" fill="#1877f2"/><path d="M355.65 330L367 256h-71v-48.022c0-20.245 9.917-39.978 41.72-39.978H370v-63s-29.297-5-57.305-5C254.22 100 216 135.44 216 199.6V256h-65v74h65v178.9c13.033 2.045 26.392 3.1 40 3.1s26.966-1.065 40-3.1V330h59.65z" fill="#fff"/></svg>