<svg xmlns="http://www.w3.org/2000/svg" viewBox="0 0 48 48"><circle cx="24" cy="24" fill="#444" r="24"/><path d="M31.2 12.3H16.8a4.48 4.48 0 0 0-4.5 4.5v14.4a4.48 4.48 0 0 0 4.5 4.5h14.4a4.48 4.48 0 0 0 4.5-4.5V16.8a4.48 4.48 0 0 0-4.5-4.5zm1.3 2.7h.5v4h-4v-4h3.5zm-11.8 6.6c.7-1 2-1.7 3.3-1.7s2.6.7 3.3 1.7c.5.7.8 1.5.8 2.4 0 2.3-1.9 4.1-4.1 4.1s-4.1-1.8-4.1-4.1c0-.9.3-1.7.8-2.4zm12.7 9.6a2.22 2.22 0 0 1-2.2 2.2H16.8a2.22 2.22 0 0 1-2.2-2.2v-9.6h3.5c-.3.7-.5 1.6-.5 2.4 0 3.5 2.9 6.4 6.4 6.4s6.4-2.9 6.4-6.4c0-.8-.2-1.7-.5-2.4h3.5v9.6z" fill="#fff"/></svg>